<svg xmlns="http://www.w3.org/2000/svg" width="207.927" height="60.918" viewBox="0 0 207.927 60.918">
  <g id="Group_4399" data-name="Group 4399" transform="translate(-44.952 -9)">
    <g id="Group_4398" data-name="Group 4398" transform="translate(44.952 9)">
      <path id="Path_23266" data-name="Path 23266" d="M190.19,228.69a6.7,6.7,0,0,1-6.472-4.974l-.166-.627h.7a7.98,7.98,0,0,0,7.9-6.858l.091-.647.6.258a6.7,6.7,0,0,1-2.644,12.848Z" transform="translate(-173.132 -180.022)" fill="#cff066" fill-rule="evenodd"/>
      <path id="Path_23267" data-name="Path 23267" d="M272.961,228.69a6.7,6.7,0,0,1-6.472-4.974l-.166-.627h.7a7.979,7.979,0,0,0,7.9-6.858l.091-.647.6.258a6.7,6.7,0,0,1-2.645,12.848Z" transform="translate(-227.811 -180.022)" fill="#cff066" fill-rule="evenodd"/>
      <path id="Path_23268" data-name="Path 23268" d="M184.058,167.317l.4-.544a33.551,33.551,0,0,1,7.709-7.181c5.094-3.634,13.256-7.74,15.989-13.557l.211-.447.449.206c1.83.84,4.3,2.3,4.369,4.571.139,4.288-9.214,9.312-12.428,11.369-3.648,2.335-8.288,5.044-10.679,8.737-2.272,3.507-2.709,7.453-.061,10.858,4.838,6.219,15.519,5.968,18.065-2.213,1.394-4.482-.4-9.494-3.635-12.728-2.873-2.871,1.3-7.274,4.288-4.287,5.617,5.617,8.144,12.085,5.439,19.84l-.012.029c-4.265,10.154-15.335,12.963-24.685,8.039l-5.422,4.693-5.421-4.693c-9.35,4.924-20.42,2.115-24.685-8.039l-.011-.029c-2.706-7.755-.179-14.222,5.438-19.84,2.987-2.986,7.162,1.416,4.288,4.287-3.235,3.234-5.029,8.246-3.634,12.728,2.545,8.181,13.226,8.433,18.064,2.213,2.649-3.405,2.212-7.351-.06-10.858-2.391-3.693-7.032-6.4-10.679-8.737-3.214-2.057-12.567-7.081-12.429-11.369.075-2.271,2.54-3.731,4.369-4.571l.45-.206.21.447c2.734,5.817,10.9,9.923,15.989,13.557a33.552,33.552,0,0,1,7.709,7.181Z" transform="translate(-152.851 -133.783)" fill="#fff" fill-rule="evenodd"/>
      <path id="Path_23269" data-name="Path 23269" d="M202.855,134.989a38.819,38.819,0,0,1,6.952,6.114,38.866,38.866,0,0,1,6.952-6.114c3.005-2.143,7.542-4.689,11.026-7.642l-.417-4.737-7.71-.025v-3.123a8.658,8.658,0,0,0-17.316,0v8.648a.713.713,0,0,0,1.426,0v-.982a2.673,2.673,0,1,1-2.618-.7v-3.845l-8.9.027-.418,4.737c3.484,2.953,8.021,5.5,11.026,7.642Zm14.184-8.561v-3.847q-6.638-.012-13.272,0v-3.116a7.232,7.232,0,0,1,14.464,0v8.648a.713.713,0,1,0,1.425,0v-.982a2.673,2.673,0,1,1-2.618-.7Z" transform="translate(-178.6 -110.805)" fill="#fff" fill-rule="evenodd"/>
    </g>
    <path id="Path_5504" data-name="Path 5504" d="M114.375,329.052A4.844,4.844,0,0,0,116,331.5a5.783,5.783,0,0,0,5.432.9,5.242,5.242,0,0,0,1.508-.755,2.284,2.284,0,0,1,1.428-.479,1.966,1.966,0,0,1,1.358.467,2,2,0,0,1,.791,1.555,1.764,1.764,0,0,1-.745,1.443,9.382,9.382,0,0,1-2.862,1.495,10.28,10.28,0,0,1-8.2-.629,8.765,8.765,0,0,1-3.45-3.35,9.487,9.487,0,0,1-1.239-4.835,9.993,9.993,0,0,1,1.166-4.836,8.513,8.513,0,0,1,3.272-3.373,9.307,9.307,0,0,1,4.723-1.207,8.605,8.605,0,0,1,4.531,1.166,7.734,7.734,0,0,1,2.956,3.263,10.575,10.575,0,0,1,1.014,4.7,1.954,1.954,0,0,1-.606,1.451,2.072,2.072,0,0,1-1.48.57Zm16.878-.39a1.738,1.738,0,0,1,.473-.051,2.362,2.362,0,0,1,1.309.4,2.427,2.427,0,0,1,.906,1.069,4.126,4.126,0,0,0,1.957,1.787,7.415,7.415,0,0,0,3.41.785,6.521,6.521,0,0,0,3.663-.985,2.776,2.776,0,0,0,1.36-2.458,3.409,3.409,0,0,0-1.187-2.616,6.754,6.754,0,0,0-3.866-1.4,11.638,11.638,0,0,1-6.509-2.439,6.655,6.655,0,0,1-2.466-5.267,6.12,6.12,0,0,1,1.287-3.881,7.841,7.841,0,0,1,3.429-2.443,13.094,13.094,0,0,1,4.729-.817,9.519,9.519,0,0,1,4.9,1.194,10.084,10.084,0,0,1,3.372,3.366,2.792,2.792,0,0,1,.477,1.475,1.982,1.982,0,0,1-.925,1.67,2.136,2.136,0,0,1-1.161.32,2.381,2.381,0,0,1-1.2-.321,2.223,2.223,0,0,1-.861-.877,5.377,5.377,0,0,0-1.9-1.938,5.857,5.857,0,0,0-2.922-.656,6.724,6.724,0,0,0-3.55.835,2.373,2.373,0,0,0-1.189,2.166,2.81,2.81,0,0,0,1.1,2.264c1.038.866,3.1,1.179,4.4,1.31a10.644,10.644,0,0,1,6.241,2.453,7.155,7.155,0,0,1,2.289,5.505,6.925,6.925,0,0,1-1.359,4.284,8.09,8.09,0,0,1-3.542,2.638,12.447,12.447,0,0,1-4.608.851,11.983,11.983,0,0,1-5.884-1.469,8.165,8.165,0,0,1-3.735-3.941,2.317,2.317,0,0,1-.207-.878,1.807,1.807,0,0,1,.522-1.273,2.393,2.393,0,0,1,1.248-.665Zm33.81,6.545a7.877,7.877,0,0,1-1.7.925,8.609,8.609,0,0,1-3.2.6,8.715,8.715,0,0,1-4.221-1.024,7.317,7.317,0,0,1-2.971-3.02,9.78,9.78,0,0,1-1.055-4.675v-7.772a2.244,2.244,0,1,1,4.487,0v7.772a4.574,4.574,0,0,0,1.178,3.413,4.477,4.477,0,0,0,3.214,1.136,4.774,4.774,0,0,0,2.137-.471,3.665,3.665,0,0,0,1.462-1.24,2.974,2.974,0,0,0,.509-1.7v-8.91a2.18,2.18,0,0,1,.651-1.624,2.236,2.236,0,0,1,3.834,1.624v14.09a2.227,2.227,0,0,1-.618,1.592,2.332,2.332,0,0,1-3.225.007,2.149,2.149,0,0,1-.481-.721Zm13.234-.476v6.991a2.274,2.274,0,0,1-3.834,1.624,2.178,2.178,0,0,1-.651-1.624V327.316a9.462,9.462,0,0,1,1.236-4.786,9.156,9.156,0,0,1,8.083-4.63,9.393,9.393,0,0,1,4.755,1.238,8.946,8.946,0,0,1,3.379,3.4,9.556,9.556,0,0,1,1.22,4.782,10.081,10.081,0,0,1-1.132,4.765,8.624,8.624,0,0,1-3.134,3.388,8.534,8.534,0,0,1-9.92-.736Zm22.212,0v6.991a2.274,2.274,0,0,1-3.835,1.624,2.178,2.178,0,0,1-.651-1.624V327.316a9.457,9.457,0,0,1,1.237-4.786,9.136,9.136,0,0,1,3.357-3.39,9.234,9.234,0,0,1,4.727-1.24,9.4,9.4,0,0,1,4.754,1.238,8.947,8.947,0,0,1,3.378,3.4,9.561,9.561,0,0,1,1.219,4.782,10.074,10.074,0,0,1-1.131,4.765,8.61,8.61,0,0,1-3.134,3.388,8.349,8.349,0,0,1-4.453,1.231,8.4,8.4,0,0,1-5.467-1.968Zm22.464,1.841a4.888,4.888,0,0,1-2.8-.852,5.49,5.49,0,0,1-1.912-2.35,7.981,7.981,0,0,1-.654-3.275V312.845a2.212,2.212,0,1,1,4.423,0V330.1a3.231,3.231,0,0,0,.355,1.608.724.724,0,0,0,.592.445h.79a1.943,1.943,0,0,1,1.5.654,2.274,2.274,0,0,1,.556,1.558,1.985,1.985,0,0,1-.858,1.646,3.177,3.177,0,0,1-1.922.565Zm9.409-2.314-3.032,6.822a2.276,2.276,0,0,0-.247,1.021,1.952,1.952,0,0,0,1.33,1.812,2.588,2.588,0,0,0,1.009.242,1.912,1.912,0,0,0,1.818-1.377l9.66-21.715a2.66,2.66,0,0,0,.243-1.016,1.912,1.912,0,0,0-1.366-1.814,2.43,2.43,0,0,0-1-.208,1.945,1.945,0,0,0-1.809,1.293l-4.545,10.247-5.181-10.306a2.051,2.051,0,0,0-1.892-1.234,2.15,2.15,0,0,0-.893.183,2.283,2.283,0,0,0-.914.74,1.891,1.891,0,0,0-.373,1.13,1.969,1.969,0,0,0,.237.971l6.959,13.208Zm-117.96-9h8.961a4.69,4.69,0,0,0-1.26-2.3,4.028,4.028,0,0,0-2.94-1.084,4.872,4.872,0,0,0-3.327,1.107,4.812,4.812,0,0,0-1.434,2.273Zm68.709,7.331a4.786,4.786,0,0,0,2.533-.684,4.951,4.951,0,0,0,1.8-1.881,5.527,5.527,0,0,0,.663-2.712,5.6,5.6,0,0,0-.665-2.73,4.925,4.925,0,0,0-1.8-1.895,4.87,4.87,0,0,0-6.84,1.889,5.719,5.719,0,0,0-.652,2.736,5.619,5.619,0,0,0,.651,2.717,4.805,4.805,0,0,0,4.309,2.561Zm22.213,0a4.784,4.784,0,0,0,2.532-.684,4.942,4.942,0,0,0,1.8-1.881,5.521,5.521,0,0,0,.663-2.712,5.6,5.6,0,0,0-.665-2.73,4.92,4.92,0,0,0-1.795-1.895,4.87,4.87,0,0,0-6.841,1.889,5.729,5.729,0,0,0-.651,2.736,5.64,5.64,0,0,0,.649,2.717,4.809,4.809,0,0,0,4.311,2.561Z" transform="translate(9.717 -275.154)" fill="#fff" fill-rule="evenodd"/>
  </g>
</svg>
