 <svg xmlns="http://www.w3.org/2000/svg" >
 <g id="Group_64838" data-name="Group 64838" transform="translate(219.64 191.236)">
      <path id="Path_45214" data-name="Path 45214" d="M284.2,191.324l-17.063,16.984a2.79,2.79,0,0,0,1.968,4.768h32.961a21.436,21.436,0,0,1-21.436,21.434h-56.9l-14.639,14.638a2.791,2.791,0,0,0,1.974,4.764h75.11A35.625,35.625,0,0,0,321.8,218.287V191.236Z" transform="translate(-208.272 -191.236)" fill="#fbb03b"/>
      <path id="Path_45215" data-name="Path 45215" d="M250.346,191.565a10.864,10.864,0,0,0-10.415,3.247,2.678,2.678,0,0,1-3.912,0,10.874,10.874,0,1,0,.026,14.7,2.675,2.675,0,0,1,3.861,0,10.876,10.876,0,1,0,10.441-17.95Z" transform="translate(-205.07 -191.212)" fill="#fbb03b"/>
    </g>
Ś</svg>